<svg style="display:none" xmlns="http://www.w3.org/2000/svg" xmlns:xlink="http://www.w3.org/1999/xlink" version="1.1">
	<symbol id="search" xmlns="http://www.w3.org/2000/svg" viewBox="0 0 24 24" fill="none"><path d="M21 21L16.65 16.65M19 11C19 15.4183 15.4183 19 11 19C6.58172 19 3 15.4183 3 11C3 6.58172 6.58172 3 11 3C15.4183 3 19 6.58172 19 11Z" stroke="currentColor" stroke-width="2" stroke-linecap="round" stroke-linejoin="round"/></symbol>
	<symbol id="shopping_bag" xmlns="http://www.w3.org/2000/svg" width="22" height="21" viewBox="0 0 22 21" fill="none"><path d="M19.9844 14H5.98438C5.71916 14 5.4648 13.8946 5.27727 13.7071C5.08973 13.5196 4.98438 13.2652 4.98438 13C4.98438 12.7348 5.08973 12.4804 5.27727 12.2929C5.4648 12.1054 5.71916 12 5.98438 12H16.4244C17.093 12 17.7425 11.7767 18.2697 11.3654C18.797 10.9542 19.1717 10.3786 19.3344 9.73L20.9844 3.24C21.0218 3.09241 21.0251 2.93821 20.9939 2.78917C20.9627 2.64013 20.8979 2.50018 20.8044 2.38C20.7071 2.25673 20.5822 2.1581 20.4398 2.09208C20.2973 2.02606 20.1413 1.99452 19.9844 2H5.74438C5.53806 1.41645 5.1563 0.910998 4.65144 0.552938C4.14658 0.194879 3.54332 0.00173951 2.92438 0H1.98438C1.71916 0 1.4648 0.105357 1.27727 0.292893C1.08973 0.48043 0.984375 0.734784 0.984375 1C0.984375 1.26522 1.08973 1.51957 1.27727 1.70711C1.4648 1.89464 1.71916 2 1.98438 2H2.92438C3.15281 1.99334 3.37663 2.06513 3.55858 2.20341C3.74053 2.34169 3.86962 2.53812 3.92438 2.76L3.98438 3.24L5.71438 10C4.91873 10.0358 4.16989 10.3862 3.6326 10.9741C3.0953 11.5621 2.81357 12.3394 2.84938 13.135C2.88518 13.9306 3.23559 14.6795 3.82351 15.2168C4.41144 15.7541 5.18873 16.0358 5.98438 16H6.16437C5.99991 16.4531 5.94706 16.9392 6.01031 17.4171C6.07355 17.895 6.25102 18.3506 6.52769 18.7454C6.80437 19.1401 7.17209 19.4624 7.59973 19.6849C8.02736 19.9074 8.50232 20.0235 8.98438 20.0235C9.46643 20.0235 9.94139 19.9074 10.369 19.6849C10.7967 19.4624 11.1644 19.1401 11.4411 18.7454C11.7177 18.3506 11.8952 17.895 11.9584 17.4171C12.0217 16.9392 11.9688 16.4531 11.8044 16H14.1644C13.9999 16.4531 13.9471 16.9392 14.0103 17.4171C14.0735 17.895 14.251 18.3506 14.5277 18.7454C14.8044 19.1401 15.1721 19.4624 15.5997 19.6849C16.0274 19.9074 16.5023 20.0235 16.9844 20.0235C17.4664 20.0235 17.9414 19.9074 18.369 19.6849C18.7967 19.4624 19.1644 19.1401 19.4411 18.7454C19.7177 18.3506 19.8952 17.895 19.9584 17.4171C20.0217 16.9392 19.9688 16.4531 19.8044 16H19.9844C20.2496 16 20.5039 15.8946 20.6915 15.7071C20.879 15.5196 20.9844 15.2652 20.9844 15C20.9844 14.7348 20.879 14.4804 20.6915 14.2929C20.5039 14.1054 20.2496 14 19.9844 14ZM18.7044 4L17.3944 9.24C17.3396 9.46188 17.2105 9.65831 17.0286 9.79659C16.8466 9.93487 16.6228 10.0067 16.3944 10H7.76437L6.26438 4H18.7044ZM8.98438 18C8.78659 18 8.59325 17.9414 8.4288 17.8315C8.26436 17.7216 8.13618 17.5654 8.0605 17.3827C7.98481 17.2 7.965 16.9989 8.00359 16.8049C8.04217 16.6109 8.13742 16.4327 8.27727 16.2929C8.41712 16.153 8.5953 16.0578 8.78928 16.0192C8.98327 15.9806 9.18433 16.0004 9.36706 16.0761C9.54978 16.1518 9.70596 16.28 9.81584 16.4444C9.92573 16.6089 9.98438 16.8022 9.98438 17C9.98438 17.2652 9.87902 17.5196 9.69148 17.7071C9.50395 17.8946 9.24959 18 8.98438 18ZM16.9844 18C16.7866 18 16.5933 17.9414 16.4288 17.8315C16.2644 17.7216 16.1362 17.5654 16.0605 17.3827C15.9848 17.2 15.965 16.9989 16.0036 16.8049C16.0422 16.6109 16.1374 16.4327 16.2773 16.2929C16.4171 16.153 16.5953 16.0578 16.7893 16.0192C16.9833 15.9806 17.1843 16.0004 17.3671 16.0761C17.5498 16.1518 17.706 16.28 17.8158 16.4444C17.9257 16.6089 17.9844 16.8022 17.9844 17C17.9844 17.2652 17.879 17.5196 17.6915 17.7071C17.5039 17.8946 17.2496 18 16.9844 18Z" fill="#0F62AC"/></symbol>
	<symbol id="big_shopping_bag" xmlns="http://www.w3.org/2000/svg" width="54" height="53" viewBox="0 0 54 53" fill="none"><path d="M50.7728 37.0564H13.7297C13.0279 37.0564 12.3549 36.7775 11.8587 36.2812C11.3625 35.7848 11.0837 35.1115 11.0837 34.4095C11.0837 33.7075 11.3625 33.0343 11.8587 32.5379C12.3549 32.0415 13.0279 31.7626 13.7297 31.7626H41.3532C43.1225 31.7627 44.841 31.1716 46.236 30.083C47.631 28.9944 48.6224 27.4709 49.0529 25.7542L53.4187 8.57591C53.5178 8.18525 53.5264 7.77711 53.4439 7.38262C53.3613 6.98813 53.1898 6.6177 52.9424 6.29959C52.6851 5.97332 52.3546 5.71224 51.9777 5.5375C51.6007 5.36276 51.188 5.27926 50.7728 5.29377H13.0947C12.5488 3.74918 11.5387 2.41131 10.2028 1.46357C8.86698 0.515821 7.2708 0.00460429 5.63312 0H3.14594C2.44419 0 1.77119 0.278868 1.27498 0.775255C0.778767 1.27164 0.5 1.94489 0.5 2.64689C0.5 3.34888 0.778767 4.02213 1.27498 4.51852C1.77119 5.01491 2.44419 5.29377 3.14594 5.29377H5.63312C6.23754 5.27616 6.82976 5.46617 7.31118 5.83219C7.7926 6.1982 8.13418 6.71813 8.27905 7.30541L8.43781 8.57591L13.0153 26.4689C10.91 26.5636 8.92866 27.4911 7.50702 29.0473C6.08538 30.6035 5.33993 32.6609 5.43467 34.7669C5.52941 36.8729 6.45656 38.8549 8.01218 40.2771C9.56779 41.6992 11.6244 42.445 13.7297 42.3502H14.2059C13.7708 43.5496 13.6309 44.8362 13.7983 46.1011C13.9656 47.366 14.4352 48.572 15.1673 49.6168C15.8993 50.6617 16.8723 51.5147 18.0038 52.1036C19.1353 52.6925 20.392 53 21.6675 53C22.943 53 24.1997 52.6925 25.3312 52.1036C26.4627 51.5147 27.4356 50.6617 28.1677 49.6168C28.8998 48.572 29.3693 47.366 29.5367 46.1011C29.704 44.8362 29.5642 43.5496 29.129 42.3502H35.3734C34.9383 43.5496 34.7984 44.8362 34.9658 46.1011C35.1331 47.366 35.6027 48.572 36.3347 49.6168C37.0668 50.6617 38.0398 51.5147 39.1713 52.1036C40.3028 52.6925 41.5595 53 42.835 53C44.1105 53 45.3672 52.6925 46.4987 52.1036C47.6302 51.5147 48.6031 50.6617 49.3352 49.6168C50.0672 48.572 50.5368 47.366 50.7042 46.1011C50.8715 44.8362 50.7317 43.5496 50.2965 42.3502H50.7728C51.4745 42.3502 52.1475 42.0713 52.6437 41.5749C53.1399 41.0785 53.4187 40.4053 53.4187 39.7033C53.4187 39.0013 53.1399 38.3281 52.6437 37.8317C52.1475 37.3353 51.4745 37.0564 50.7728 37.0564ZM47.386 10.5875L43.9198 24.4572C43.7749 25.0445 43.4334 25.5644 42.9519 25.9305C42.4705 26.2965 41.8783 26.4865 41.2739 26.4689H18.4394L14.4705 10.5875H47.386ZM21.6675 47.644C21.1442 47.644 20.6326 47.4887 20.1975 47.1979C19.7624 46.907 19.4232 46.4936 19.223 46.01C19.0227 45.5263 18.9703 44.9941 19.0724 44.4807C19.1745 43.9672 19.4265 43.4956 19.7965 43.1254C20.1666 42.7553 20.638 42.5032 21.1513 42.401C21.6645 42.2989 22.1966 42.3513 22.68 42.5517C23.1635 42.752 23.5768 43.0913 23.8675 43.5265C24.1582 43.9618 24.3134 44.4736 24.3134 44.9971C24.3134 45.6991 24.0347 46.3723 23.5384 46.8687C23.0422 47.3651 22.3692 47.644 21.6675 47.644ZM42.835 47.644C42.3117 47.644 41.8001 47.4887 41.365 47.1979C40.9298 46.907 40.5907 46.4936 40.3904 46.01C40.1902 45.5263 40.1378 44.9941 40.2399 44.4807C40.342 43.9672 40.594 43.4956 40.964 43.1254C41.334 42.7553 41.8055 42.5032 42.3188 42.401C42.832 42.2989 43.364 42.3513 43.8475 42.5517C44.331 42.752 44.7442 43.0913 45.035 43.5265C45.3257 43.9618 45.4809 44.4736 45.4809 44.9971C45.4809 45.6991 45.2021 46.3723 44.7059 46.8687C44.2097 47.3651 43.5367 47.644 42.835 47.644Z" fill="currentColor"/></symbol>
	<symbol id="menu" xmlns="http://www.w3.org/2000/svg" viewBox="0 -960 960 960" fill="currentColor"><path d="M120-240v-80h720v80H120Zm0-200v-80h720v80H120Zm0-200v-80h720v80H120Z"/></symbol>
	<symbol id="account_circle" xmlns="http://www.w3.org/2000/svg" width="24" height="24" viewBox="0 0 24 24" fill="none"><path d="M21.6488 19.875C20.2209 17.4065 18.0206 15.6365 15.4528 14.7975C16.723 14.0414 17.7098 12.8892 18.2618 11.5179C18.8137 10.1467 18.9003 8.63211 18.5082 7.20688C18.1161 5.78165 17.267 4.52454 16.0912 3.6286C14.9155 2.73266 13.4782 2.24744 12 2.24744C10.5218 2.24744 9.08451 2.73266 7.90878 3.6286C6.73306 4.52454 5.88394 5.78165 5.49183 7.20688C5.09971 8.63211 5.18629 10.1467 5.73825 11.5179C6.29021 12.8892 7.27704 14.0414 8.5472 14.7975C5.97938 15.6356 3.77907 17.4056 2.35126 19.875C2.2989 19.9604 2.26417 20.0554 2.24912 20.1544C2.23407 20.2534 2.239 20.3544 2.26363 20.4515C2.28825 20.5486 2.33207 20.6397 2.3925 20.7196C2.45293 20.7995 2.52874 20.8664 2.61547 20.9165C2.7022 20.9666 2.79808 20.9988 2.89745 21.0113C2.99683 21.0237 3.0977 21.0161 3.19409 20.989C3.29049 20.9618 3.38047 20.9156 3.45872 20.8531C3.53697 20.7906 3.6019 20.713 3.6497 20.625C5.41595 17.5725 8.53782 15.75 12 15.75C15.4622 15.75 18.5841 17.5725 20.3503 20.625C20.3981 20.713 20.4631 20.7906 20.5413 20.8531C20.6196 20.9156 20.7095 20.9618 20.8059 20.989C20.9023 21.0161 21.0032 21.0237 21.1026 21.0113C21.2019 20.9988 21.2978 20.9666 21.3845 20.9165C21.4713 20.8664 21.5471 20.7995 21.6075 20.7196C21.6679 20.6397 21.7118 20.5486 21.7364 20.4515C21.761 20.3544 21.766 20.2534 21.7509 20.1544C21.7358 20.0554 21.7011 19.9604 21.6488 19.875ZM6.75001 8.99999C6.75001 7.96164 7.05792 6.9466 7.63479 6.08324C8.21167 5.21989 9.03161 4.54698 9.99092 4.14962C10.9502 3.75226 12.0058 3.64829 13.0242 3.85086C14.0426 4.05344 14.9781 4.55345 15.7123 5.28768C16.4465 6.0219 16.9466 6.95736 17.1491 7.97576C17.3517 8.99416 17.2477 10.0498 16.8504 11.0091C16.453 11.9684 15.7801 12.7883 14.9168 13.3652C14.0534 13.9421 13.0384 14.25 12 14.25C10.6081 14.2485 9.27359 13.6949 8.28934 12.7107C7.3051 11.7264 6.7515 10.3919 6.75001 8.99999Z" fill="#2D2D2D"/></symbol>
	<symbol id="close" xmlns="http://www.w3.org/2000/svg" viewBox="0 -960 960 960" fill="currentColor"><path d="m256-200-56-56 224-224-224-224 56-56 224 224 224-224 56 56-224 224 224 224-56 56-224-224-224 224Z"/></symbol>
	<symbol id="chevron-right" xmlns="http://www.w3.org/2000/svg" width="24" height="24" viewBox="0 0 24 24" fill="none"><path d="M9 18L15 12L9 6" stroke="currentColor" stroke-width="1.5" stroke-linecap="round" stroke-linejoin="round"/></symbol>
	<symbol id="chevron-down" xmlns="http://www.w3.org/2000/svg" width="16" height="16" viewBox="0 0 16 16" fill="none"><path d="M4 6L8 10L12 6" stroke="currentColor" stroke-width="2" stroke-linecap="round" stroke-linejoin="round"/></symbol>
	<symbol id="favorite" xmlns="http://www.w3.org/2000/svg" viewBox="0 -960 960 960" fill="currentColor"><path d="m480-120-58-52q-101-91-167-157T150-447.5Q111-500 95.5-544T80-634q0-94 63-157t157-63q52 0 99 22t81 62q34-40 81-62t99-22q94 0 157 63t63 157q0 46-15.5 90T810-447.5Q771-395 705-329T538-172l-58 52Zm0-108q96-86 158-147.5t98-107q36-45.5 50-81t14-70.5q0-60-40-100t-100-40q-47 0-87 26.5T518-680h-76q-15-41-55-67.5T300-774q-60 0-100 40t-40 100q0 35 14 70.5t50 81q36 45.5 98 107T480-228Zm0-273Z"/></symbol>
	<symbol id="home_pin" xmlns="http://www.w3.org/2000/svg" viewBox="0 -960 960 960" fill="currentColor"><path d="M360-440h80v-110h80v110h80v-190l-120-80-120 80v190Zm120 254q122-112 181-203.5T720-552q0-109-69.5-178.5T480-800q-101 0-170.5 69.5T240-552q0 71 59 162.5T480-186Zm0 106Q319-217 239.5-334.5T160-552q0-150 96.5-239T480-880q127 0 223.5 89T800-552q0 100-79.5 217.5T480-80Zm0-480Z"/></symbol>
	<symbol id="call" xmlns="http://www.w3.org/2000/svg" viewBox="0 -960 960 960" fill="currentColor"><path d="M798-120q-125 0-247-54.5T329-329Q229-429 174.5-551T120-798q0-18 12-30t30-12h162q14 0 25 9.5t13 22.5l26 140q2 16-1 27t-11 19l-97 98q20 37 47.5 71.5T387-386q31 31 65 57.5t72 48.5l94-94q9-9 23.5-13.5T670-390l138 28q14 4 23 14.5t9 23.5v162q0 18-12 30t-30 12ZM241-600l66-66-17-94h-89q5 41 14 81t26 79Zm358 358q39 17 79.5 27t81.5 13v-88l-94-19-67 67ZM241-600Zm358 358Z"/></symbol>
	<symbol id="local_shipping" xmlns="http://www.w3.org/2000/svg" viewBox="0 -960 960 960" fill="currentColor"><path d="M240-160q-50 0-85-35t-35-85H40v-440q0-33 23.5-56.5T120-800h560v160h120l120 160v200h-80q0 50-35 85t-85 35q-50 0-85-35t-35-85H360q0 50-35 85t-85 35Zm0-80q17 0 28.5-11.5T280-280q0-17-11.5-28.5T240-320q-17 0-28.5 11.5T200-280q0 17 11.5 28.5T240-240ZM120-360h32q17-18 39-29t49-11q27 0 49 11t39 29h272v-360H120v360Zm600 120q17 0 28.5-11.5T760-280q0-17-11.5-28.5T720-320q-17 0-28.5 11.5T680-280q0 17 11.5 28.5T720-240Zm-40-200h170l-90-120h-80v120ZM360-540Z"/></symbol>
	<symbol id="pan_zoom" xmlns="http://www.w3.org/2000/svg" viewBox="0 -960 960 960" fill="currentColor"><path d="M120-120v-240h80v104l124-124 56 56-124 124h104v80H120Zm516-460-56-56 124-124H600v-80h240v240h-80v-104L636-580Z"/></symbol>
	<symbol id="share" xmlns="http://www.w3.org/2000/svg" viewBox="0 -960 960 960" fill="currentColor"><path d="M720-80q-50 0-85-35t-35-85q0-7 1-14.5t3-13.5L322-392q-17 15-38 23.5t-44 8.5q-50 0-85-35t-35-85q0-50 35-85t85-35q23 0 44 8.5t38 23.5l282-164q-2-6-3-13.5t-1-14.5q0-50 35-85t85-35q50 0 85 35t35 85q0 50-35 85t-85 35q-23 0-44-8.5T638-672L356-508q2 6 3 13.5t1 14.5q0 7-1 14.5t-3 13.5l282 164q17-15 38-23.5t44-8.5q50 0 85 35t35 85q0 50-35 85t-85 35Zm0-640q17 0 28.5-11.5T760-760q0-17-11.5-28.5T720-800q-17 0-28.5 11.5T680-760q0 17 11.5 28.5T720-720ZM240-440q17 0 28.5-11.5T280-480q0-17-11.5-28.5T240-520q-17 0-28.5 11.5T200-480q0 17 11.5 28.5T240-440Zm480 280q17 0 28.5-11.5T760-200q0-17-11.5-28.5T720-240q-17 0-28.5 11.5T680-200q0 17 11.5 28.5T720-160Zm0-600ZM240-480Zm480 280Z"/></symbol>
	<symbol id="sell" xmlns="http://www.w3.org/2000/svg" viewBox="0 -960 960 960" fill="currentColor"><path d="M856-390 570-104q-12 12-27 18t-30 6q-15 0-30-6t-27-18L103-457q-11-11-17-25.5T80-513v-287q0-33 23.5-56.5T160-880h287q16 0 31 6.5t26 17.5l352 353q12 12 17.5 27t5.5 30q0 15-5.5 29.5T856-390ZM513-160l286-286-353-354H160v286l353 354ZM260-640q25 0 42.5-17.5T320-700q0-25-17.5-42.5T260-760q-25 0-42.5 17.5T200-700q0 25 17.5 42.5T260-640Zm220 160Z"/></symbol>
	<symbol id="check-circle" xmlns="http://www.w3.org/2000/svg" viewBox="0 -960 960 960" fill="currentColor"><path d="m424-296 282-282-56-56-226 226-114-114-56 56 170 170Zm56 216q-83 0-156-31.5T197-197q-54-54-85.5-127T80-480q0-83 31.5-156T197-763q54-54 127-85.5T480-880q83 0 156 31.5T763-763q54 54 85.5 127T880-480q0 83-31.5 156T763-197q-54 54-127 85.5T480-80Zm0-80q134 0 227-93t93-227q0-134-93-227t-227-93q-134 0-227 93t-93 227q0 134 93 227t227 93Zm0-320Z"/></symbol>
	<symbol id="error" xmlns="http://www.w3.org/2000/svg" viewBox="0 -960 960 960" fill="currentColor"><path d="M480-280q17 0 28.5-11.5T520-320q0-17-11.5-28.5T480-360q-17 0-28.5 11.5T440-320q0 17 11.5 28.5T480-280Zm-40-160h80v-240h-80v240Zm40 360q-83 0-156-31.5T197-197q-54-54-85.5-127T80-480q0-83 31.5-156T197-763q54-54 127-85.5T480-880q83 0 156 31.5T763-763q54 54 85.5 127T880-480q0 83-31.5 156T763-197q-54 54-127 85.5T480-80Zm0-80q134 0 227-93t93-227q0-134-93-227t-227-93q-134 0-227 93t-93 227q0 134 93 227t227 93Zm0-320Z"/></symbol>
	<symbol id="trash" xmlns="http://www.w3.org/2000/svg" viewBox="0 -960 960 960" fill="currentColor"><path d="M280-120q-33 0-56.5-23.5T200-200v-520h-40v-80h200v-40h240v40h200v80h-40v520q0 33-23.5 56.5T680-120H280Zm400-600H280v520h400v-520ZM360-280h80v-360h-80v360Zm160 0h80v-360h-80v360ZM280-720v520-520Z"/></symbol>
	<symbol id="check-success" xmlns="http://www.w3.org/2000/svg" fill="currentColor" viewBox="0 0 24 24"><path d="M12,2A10,10,0,1,0,22,12,10,10,0,0,0,12,2Zm4.71,8.71-5,5a1,1,0,0,1-1.42,0l-3-3a1,1,0,1,1,1.42-1.42L11,13.59l4.29-4.3a1,1,0,0,1,1.42,1.42Z"/></symbol>
	<symbol id="check-error" xmlns="http://www.w3.org/2000/svg" fill="currentColor" viewBox="0 0 24 24"><path d="M12,2A10,10,0,1,0,22,12,10,10,0,0,0,12,2Zm3.71,12.29a1,1,0,0,1,0,1.42,1,1,0,0,1-1.42,0L12,13.42,9.71,15.71a1,1,0,0,1-1.42,0,1,1,0,0,1,0-1.42L10.58,12,8.29,9.71A1,1,0,0,1,9.71,8.29L12,10.58l2.29-2.29a1,1,0,0,1,1.42,1.42L13.42,12Z"/></symbol>
	<symbol id="home" xmlns="http://www.w3.org/2000/svg" viewBox="0 0 16 16" fill="none"><path d="M8.65487 1.84267C8.42065 1.6605 8.30354 1.56941 8.17423 1.5344C8.06013 1.50351 7.93987 1.50351 7.82577 1.5344C7.69646 1.56941 7.57935 1.6605 7.34513 1.84267L2.82359 5.35942C2.52135 5.5945 2.37022 5.71204 2.26135 5.85924C2.16491 5.98963 2.09307 6.13652 2.04935 6.2927C2 6.46901 2 6.66046 2 7.04337V11.8667C2 12.6134 2 12.9868 2.14532 13.272C2.27316 13.5229 2.47713 13.7268 2.72801 13.8547C3.01323 14 3.3866 14 4.13333 14H5.46667C5.65335 14 5.74669 14 5.818 13.9637C5.88072 13.9317 5.93171 13.8807 5.96367 13.818C6 13.7467 6 13.6533 6 13.4667V9.06666C6 8.69329 6 8.5066 6.07266 8.364C6.13658 8.23855 6.23857 8.13657 6.36401 8.07265C6.50661 7.99999 6.6933 7.99999 7.06667 7.99999H8.93333C9.3067 7.99999 9.49339 7.99999 9.63599 8.07265C9.76144 8.13657 9.86342 8.23855 9.92734 8.364C10 8.5066 10 8.69329 10 9.06666V13.4667C10 13.6533 10 13.7467 10.0363 13.818C10.0683 13.8807 10.1193 13.9317 10.182 13.9637C10.2533 14 10.3466 14 10.5333 14H11.8667C12.6134 14 12.9868 14 13.272 13.8547C13.5229 13.7268 13.7268 13.5229 13.8547 13.272C14 12.9868 14 12.6134 14 11.8667V7.04337C14 6.66046 14 6.46901 13.9506 6.2927C13.9069 6.13652 13.8351 5.98963 13.7386 5.85924C13.6298 5.71204 13.4787 5.5945 13.1764 5.35942L8.65487 1.84267Z" stroke="currentColor" stroke-linecap="round" stroke-linejoin="round"/></symbol>
</svg>
